# File produced by Open Asset Import Library (http://www.assimp.sf.net)
# (assimp v3.1.197435470)

mtllib haus1.mtl

# 8 vertex positions
v  -0.5 4.84113 0.5
v  -0.5 -0.0495553 0.5
v  0.5 -0.0495553 0.5
v  0.5 4.84113 0.5
v  -0.5 4.84113 -0.5
v  0.5 4.84113 -0.5
v  -0.5 -0.0495553 -0.5
v  0.5 -0.0495553 -0.5

# 24 UV coordinates
vt 0.00199203 0.93204 0
vt 0.00199203 0.00186036 0
vt 0.192186 0.00186036 0
vt 0.192186 0.93204 0
vt 0.789564 0.192054 0
vt 0.789564 0.00186036 0
vt 0.979758 0.00186036 0
vt 0.979758 0.192054 0
vt 0.199031 0.93204 0
vt 0.199031 0.00186036 0
vt 0.389225 0.00186036 0
vt 0.389225 0.93204 0
vt 0.807814 0.38624 0
vt 0.807814 0.196046 0
vt 0.998008 0.196046 0
vt 0.998008 0.38624 0
vt 0.395875 0.93204 0
vt 0.395875 0.00186036 0
vt 0.586069 0.00186036 0
vt 0.586069 0.93204 0
vt 0.592719 0.93204 0
vt 0.592719 0.00186036 0
vt 0.782914 0.00186036 0
vt 0.782914 0.93204 0

# 6 vertex normals
vn 0 0 1
vn 0 1 0
vn 0 0 -1
vn 0 -1 0
vn 1 0 0
vn -1 0 0

# Mesh 'pCube1_pCube1' with 12 faces
g pCube1_pCube1
usemtl lambert1
f  1/1/1 2/2/1 3/3/1
f  3/3/1 4/4/1 1/1/1
f  5/5/2 1/6/2 4/7/2
f  4/7/2 6/8/2 5/5/2
f  7/9/3 5/10/3 6/11/3
f  6/11/3 8/12/3 7/9/3
f  2/13/4 7/14/4 8/15/4
f  8/15/4 3/16/4 2/13/4
f  4/17/5 3/18/5 8/19/5
f  8/19/5 6/20/5 4/17/5
f  5/21/6 7/22/6 2/23/6
f  2/23/6 1/24/6 5/21/6

